<?xml version="1.0" encoding="UTF-8"?>
<svg width="58px" height="58px" viewBox="0 0 58 58" version="1.1" xmlns="http://www.w3.org/2000/svg" xmlns:xlink="http://www.w3.org/1999/xlink">
    <title>Thumbnail</title>
    <g id="Page-1" stroke="none" stroke-width="1" fill="none" fill-rule="evenodd">
        <g id="Mobile-Copy-2" transform="translate(-18.000000, -147.000000)">
            <g id="Thumbnail" transform="translate(18.000000, 147.000000)">
                <circle id="Oval-Copy" fill-opacity="0.25" fill="#FFFFFF" cx="29" cy="29" r="29"></circle>
                <g id="person-24px-copy" transform="translate(11.000000, 11.000000)">
                    <polygon id="Path" points="0 0 36 0 36 36 0 36"></polygon>
                    <path d="M18,18 C21.315,18 24,15.315 24,12 C24,8.685 21.315,6 18,6 C14.685,6 12,8.685 12,12 C12,15.315 14.685,18 18,18 Z M18,21 C13.995,21 6,23.01 6,27 L6,30 L30,30 L30,27 C30,23.01 22.005,21 18,21 Z" id="Shape" fill="#FFFFFF" fill-rule="nonzero"></path>
                </g>
            </g>
        </g>
    </g>
</svg>